<?xml version="1.0" encoding="UTF-8"?>
<svg width="1440" height="810" xmlns="http://www.w3.org/2000/svg" xmlns:svg="http://www.w3.org/2000/svg" preserveAspectRatio="xMinYMin slice">

 <g>
  <title>Layer 1</title>
  <path id="svg_1" d="m592.659973,0c-15,64.092003 -30.700012,125.285004 -46.598022,183.776993c87.99408,141.783005 202.286072,367.155014 273.580078,625.723007l419.672058,0c-54.796143,-215.77301 -156.190063,-519.436005 -336.677063,-809.5l-309.977051,0z" fill="#ffa3a3"/>
  <path id="svg_2" d="m545.961975,183.776993c-53.79599,196.576004 -111.59201,361.155991 -163.48999,490.739975c11.699982,44.494019 22.799988,89.48999 33.099976,134.882996l404.070007,0c-71.294006,-258.467957 -185.585999,-483.839996 -273.679993,-625.622971z" fill="#ff7777"/>
  <path id="svg_3" d="m153.889999,0c74.093994,180.677994 161.087997,417.447998 228.482986,674.517029c67.297028,-168.180023 144.690002,-395.052032 210.187012,-674.517029l-438.669998,0z" fill="#e24141"/>
  <path id="svg_4" d="m153.889999,0l-153.889999,0l0,809.5l415.570007,0c-70.093018,-308.562012 -174.686005,-597.626007 -261.680008,-809.5z" fill="#ff7f7f"/>
  <path id="svg_5" d="m1144.219971,501.537994c52.595947,-134.583008 101.491943,-290.963989 134.089966,-463.342983c1.200073,-6.100002 2.300049,-12.298 3.400024,-18.497002c0,-0.199999 0.099976,-0.4 0.099976,-0.6c1.099976,-6.299999 2.300049,-12.699999 3.400024,-19.097999l-382.67395,0c105.292969,169.280004 183.687988,343.15798 241.68396,501.63799l0,-0.099976l0,-0.000031z" fill="#ff8c8c"/>
  <path id="svg_6" d="m1285.310059,0c-2.199951,12.798 -4.5,25.597 -6.900024,38.195c43.096924,48.195 101.192993,120.784996 161.589966,218.973l0,-257.167999l-154.689941,0z" fill="#ea7272"/>
  <path id="svg_7" d="m1278.310059,38.195999c-32.5,171.677994 -81.090088,327.360001 -133.490112,461.642014l0,3.799988c41,112.286011 71.590088,216.572998 94.290039,305.961975l200.589966,0.400024l0,-553.231995c-60.299927,-97.988007 -118.289917,-170.480003 -161.389893,-218.573006l0,0.000999z" fill="#db3030"/>
 </g>
</svg>